<svg width="16" height="16" viewBox="0 0 16 16" fill="none" xmlns="http://www.w3.org/2000/svg">
<g clip-path="url(#clip0_23_40)">
<path fill-rule="evenodd" clip-rule="evenodd" d="M9.84959 4.87037H11.8362L13.4289 3.02231H11.4287L9.84959 4.87037ZM11.1738 3.02231H3.23193V4.87037H9.59463L11.1738 3.02231Z" fill="black"/>
<path fill-rule="evenodd" clip-rule="evenodd" d="M7.79853 7.96587H9.14041L11.0172 6.11781H9.22697L7.79853 7.96587ZM8.99635 6.11781H6.10913V7.96587H7.56791L8.99635 6.11781Z" fill="#FF6506"/>
<path fill-rule="evenodd" clip-rule="evenodd" d="M5.69477 10.6876L5.68628 13.6949L7.38864 10.1946L7.39345 8.48995L5.69477 10.6876ZM7.3943 8.19048L7.40886 3.03056L5.7164 3.02231L5.69561 10.3882L7.3943 8.19048Z" fill="black"/>
<path fill-rule="evenodd" clip-rule="evenodd" d="M8.37915 0.0506582C7.47758 0.103405 6.37697 0.325324 5.35182 0.6611C4.94871 0.793116 4.56873 0.898908 4.50735 0.89622C4.44598 0.893472 4.39582 0.918084 4.39582 0.950819C4.39582 0.983554 4.4245 0.993769 4.45955 0.973459C4.49461 0.953148 4.52329 0.960675 4.52329 0.990185C4.52329 1.01975 4.45159 1.07453 4.36395 1.11193C4.27632 1.14938 4.20462 1.20296 4.20462 1.23104C4.20462 1.25912 4.1238 1.28211 4.02508 1.28211C3.83637 1.28211 3.03511 1.73199 2.86622 1.93276C2.81364 1.9953 2.88534 1.96442 3.02555 1.86418C3.31694 1.65588 3.75849 1.39902 3.75849 1.43779C3.75849 1.45212 3.48328 1.67607 3.1469 1.93551C2.43678 2.4831 1.93475 3.01177 1.65101 3.51074C1.51628 3.74765 1.40564 3.87005 1.3152 3.8823C1.21164 3.89628 1.16989 3.95834 1.13516 4.14986C1.1103 4.28695 1.0393 4.48856 0.977352 4.59787L0.864735 4.79656L0.826304 4.61735C0.788446 4.44059 0.785196 4.4431 0.590236 4.79865C0.0796678 5.72999 -0.110768 7.08707 0.0625234 8.55992C0.330458 10.8376 1.43254 12.741 3.19617 13.9719C3.48794 14.1755 3.69794 14.3312 3.66289 14.3179C3.62783 14.3046 3.41273 14.2035 3.18488 14.0933L2.77062 13.8928L2.96182 14.0837C3.06698 14.1887 3.36812 14.4103 3.63102 14.5762C4.1029 14.8739 4.08117 14.8898 3.48762 14.6812C3.32108 14.6227 3.18488 14.5853 3.18488 14.5981C3.18488 14.6904 4.42698 15.1486 4.77822 15.1859C4.8308 15.1914 5.10396 15.2664 5.38522 15.3524C5.66647 15.4383 6.0063 15.5279 6.14039 15.5515C6.29788 15.5792 6.35537 15.6111 6.30279 15.6416C6.25702 15.6681 6.3727 15.6881 6.56734 15.6875C6.75765 15.687 7.45821 15.6927 8.12422 15.7003C8.79023 15.708 9.46422 15.6942 9.62196 15.6696C10.0686 15.6001 9.88148 15.6934 9.39105 15.7847C9.15001 15.8296 9.01011 15.8687 9.08022 15.8715C9.35631 15.8827 10.996 15.5924 10.9421 15.5419C10.9282 15.5288 10.7391 15.541 10.5218 15.5689C9.94476 15.6428 10.1361 15.5399 10.82 15.4084C11.2763 15.3207 11.3927 15.3134 11.3374 15.3758C11.2366 15.4897 12.0297 15.2295 12.5894 14.965C13.3145 14.6225 14.1286 14.0775 14.88 13.4316C15.8785 12.5732 16.2204 12.1142 15.8613 12.1142C15.7875 12.1142 15.5837 11.9932 15.4082 11.8454C14.9993 11.5008 14.848 11.498 14.5407 11.8293C13.4823 12.9709 12.9629 13.3578 11.7374 13.9178C8.94313 15.1945 6.41725 14.9742 3.56729 13.2053C1.9201 12.1829 0.942235 10.7881 0.606042 8.9813C0.480806 8.30807 0.480487 7.14083 0.605404 6.4694C0.65894 6.18171 0.687875 5.88919 0.669711 5.81941C0.651611 5.7497 0.654479 5.72987 0.676212 5.77545C0.698391 5.82192 0.80916 5.59923 0.928724 5.26769C1.24261 4.39746 1.72322 3.65249 2.42321 2.95114C2.63378 2.74015 2.77559 2.55801 2.7383 2.54636C2.69554 2.53298 2.70586 2.48149 2.76641 2.4064C2.85264 2.29948 2.86239 2.2981 2.86418 2.39296C2.86571 2.47152 2.98361 2.40861 3.32828 2.14542C4.12973 1.53342 4.93685 1.1139 5.98915 0.762173C6.90691 0.455429 7.79587 0.301669 9.11209 0.221861C9.72552 0.184706 10.2373 0.145639 10.2493 0.135125C10.2614 0.124612 10.161 0.0872764 10.0263 0.0522114C9.76013 -0.0170225 9.53993 -0.0172615 8.37915 0.0506582ZM10.643 0.253761C10.7314 0.298801 10.9178 0.351548 11.0572 0.371022C11.3108 0.406326 11.3108 0.406326 10.9922 0.291334C10.6215 0.157466 10.4096 0.134707 10.643 0.253761ZM11.7252 0.520003C11.7777 0.5479 11.8925 0.58852 11.9801 0.610324L12.1394 0.649869L11.9801 0.559907C11.8925 0.510446 11.7777 0.469825 11.7252 0.469646C11.6402 0.469347 11.6402 0.474962 11.7252 0.520003ZM5.82663 0.697957C5.73728 0.776151 5.43149 0.852732 5.51115 0.776868C5.54621 0.743535 5.63225 0.703333 5.70235 0.687503C5.77246 0.671673 5.84276 0.655663 5.8585 0.65184C5.87424 0.648017 5.8599 0.668746 5.82663 0.697957ZM5.12875 0.943591C5.10708 0.976445 5.06069 1.00333 5.02563 1.00333C4.99058 1.00333 4.97962 0.976445 5.00129 0.943591C5.02296 0.910736 5.06935 0.883855 5.10441 0.883855C5.13946 0.883855 5.15042 0.910736 5.12875 0.943591ZM4.14089 1.50421C4.14089 1.51688 4.06205 1.57219 3.96562 1.62721L3.79035 1.72727L3.94083 1.60421C4.08767 1.4842 4.14089 1.45756 4.14089 1.50421ZM3.43982 1.91997C3.43982 1.93132 3.37526 1.99178 3.29642 2.05438L3.15302 2.16818L3.27443 2.03377C3.38851 1.90749 3.43982 1.87219 3.43982 1.91997ZM1.73374 2.87694C1.59136 3.02174 1.42801 3.23058 1.37071 3.34115L1.26657 3.5421L1.39978 3.39276C1.47301 3.31063 1.64955 3.11415 1.79212 2.95609C2.12232 2.59009 2.07669 2.52826 1.73374 2.87694ZM0.699284 5.27092C0.699284 5.31829 0.670603 5.37361 0.63555 5.39392C0.600497 5.41423 0.571817 5.37546 0.571817 5.30784C0.571817 5.24022 0.600497 5.18484 0.63555 5.18484C0.670603 5.18484 0.699284 5.22355 0.699284 5.27092ZM0.44435 6.20387C0.44435 6.26767 0.41567 6.31982 0.380617 6.31982C0.345563 6.31982 0.316883 6.25101 0.316883 6.16696C0.316883 6.08028 0.34448 6.03004 0.380617 6.05101C0.41567 6.07132 0.44435 6.14008 0.44435 6.20387ZM0.297062 6.72304C0.281065 6.78057 0.267936 6.73349 0.267936 6.6185C0.267936 6.50351 0.281065 6.45644 0.297062 6.51396C0.313123 6.57149 0.313123 6.66551 0.297062 6.72304ZM0.282531 8.1478C0.309681 8.38137 0.302926 8.46996 0.262455 8.41058C0.171189 8.27665 0.0611214 7.65349 0.0679409 7.30941L0.0739317 7.00678L0.157741 7.4011C0.203884 7.618 0.260033 7.95402 0.282531 8.1478ZM0.317712 9.01075C0.351108 9.11976 0.353912 9.18386 0.324021 9.15328C0.262073 9.08984 0.158187 8.71983 0.218097 8.77592C0.239511 8.79605 0.284379 8.90173 0.317712 9.01075ZM0.854156 9.63516C0.904887 10.0476 1.89677 11.7116 2.26081 11.9948C2.49217 12.1748 2.32621 11.8775 1.84387 11.248C1.46428 10.7526 1.14975 10.2098 0.944084 9.6949L0.824838 9.39622L0.854156 9.63516ZM0.499479 9.63821C0.519619 9.73564 0.508912 9.74006 0.419813 9.67077C0.298018 9.57603 0.28285 9.46528 0.39655 9.50076C0.440399 9.51438 0.486669 9.57626 0.499479 9.63821ZM0.631344 10.2027C0.631662 10.2823 0.625672 10.2823 0.577617 10.2027C0.547853 10.1534 0.504515 10.0458 0.481252 9.96371L0.43906 9.81437L0.535042 9.96371C0.587814 10.0458 0.631152 10.1534 0.631344 10.2027ZM1.01623 10.9354C1.01425 11.0218 0.638928 10.6196 0.639119 10.5312C0.639247 10.4983 0.724458 10.5593 0.828598 10.6666C0.932739 10.7739 1.01719 10.8948 1.01623 10.9354ZM1.27288 11.5168C1.27288 11.5497 1.26026 11.5766 1.24478 11.5766C1.22929 11.5766 1.19895 11.5497 1.17728 11.5168C1.15561 11.484 1.1683 11.4571 1.20539 11.4571C1.24248 11.4571 1.27288 11.484 1.27288 11.5168ZM13.4716 13.9562C13.1069 14.2752 12.4954 14.5934 11.8011 14.8257C11.2098 15.0235 11.274 14.9115 11.9093 14.637C12.5416 14.3637 13.4714 13.8722 13.5729 13.7575C13.6168 13.708 13.6851 13.6684 13.7246 13.6696C13.7642 13.6709 13.6503 13.7998 13.4716 13.9562ZM13.3794 14.3576C13.3341 14.4087 13.2374 14.4775 13.1644 14.5105C13.0678 14.5542 13.0803 14.529 13.2105 14.4176C13.4086 14.2482 13.5073 14.2131 13.3794 14.3576ZM5.67049 15.0642C6.5957 15.2974 7.33068 15.4002 8.37915 15.4429C9.50252 15.4886 9.36396 15.5788 8.15609 15.5882C7.35337 15.5945 6.71686 15.5 5.86169 15.2477C5.34073 15.094 4.01342 14.544 4.01342 14.4818C4.01342 14.4652 4.25006 14.5551 4.53922 14.6817C4.82838 14.8081 5.33748 14.9803 5.67049 15.0642ZM12.8058 14.6563C12.7605 14.7073 12.6638 14.7762 12.5908 14.8092C12.4942 14.8529 12.5067 14.8277 12.6369 14.7163C12.835 14.5469 12.9337 14.5118 12.8058 14.6563ZM12.235 14.886C12.235 14.9272 11.7743 15.1669 11.746 15.1404C11.7312 15.1266 11.8137 15.0606 11.9293 14.9936C12.1364 14.8738 12.235 14.839 12.235 14.886ZM10.6417 15.1288C10.6417 15.144 10.5772 15.1888 10.4983 15.2282C10.3683 15.2931 10.363 15.2905 10.4423 15.2004C10.5238 15.1079 10.6417 15.0655 10.6417 15.1288ZM6.91329 15.8261C7.28976 15.9401 8.09484 16.0491 8.02441 15.9766C7.98229 15.9331 6.76715 15.6969 6.62649 15.7049C6.57391 15.7079 6.70297 15.7624 6.91329 15.8261Z" fill="#FF6506"/>
</g>
<defs>
<clipPath id="clip0_23_40">
<rect width="16" height="16" fill="white"/>
</clipPath>
</defs>
</svg>
